<svg width="24" height="24" viewBox="0 0 24 24" xmlns="http://www.w3.org/2000/svg" xmlns:xlink="http://www.w3.org/1999/xlink">
    <defs>
        <path d="m16.396 5.11 3.494 3.494a.379.379 0 0 1 0 .534l-8.459 8.458-3.593.4a.753.753 0 0 1-.833-.834l.399-3.593 8.458-8.459a.379.379 0 0 1 .534 0zm6.159-.76-1.906-1.905a1.527 1.527 0 0 0-2.155 0L17.11 3.828a.382.382 0 0 0 0 .538l3.523 3.523c.148.148.39.148.538 0l1.383-1.383a1.527 1.527 0 0 0 0-2.155zM15.57 15.339v4.09H3.43V6.572h8.72a.454.454 0 0 0 .322-.14l1.518-1.607c.288-.306.084-.824-.322-.824H2.82C1.816 4 1 4.864 1 5.929V20.07C1 21.136 1.816 22 2.821 22H16.18C17.184 22 18 21.136 18 20.071v-6.34c0-.43-.49-.643-.778-.341l-1.518 1.607a.51.51 0 0 0-.133.341z" id="k8io8107ra"/>
    </defs>
    <g fill="none" fill-rule="evenodd">
        <path d="M0 0h24v24H0z"/>
        <use fill="#FFF" fill-rule="nonzero" xlink:href="#k8io8107ra"/>
    </g>
</svg>
